<?xml version="1.0" encoding="utf-8"?>
<svg version="1.1" xmlns:xlink="http://www.w3.org/1999/xlink" width="12px" height="12px" viewBox="455 342.5  12 12" xmlns="http://www.w3.org/2000/svg">
  <path d="M 461 342.5  C 464.36 342.5  467 345.14  467 348.5  C 467 351.86  464.36 354.5  461 354.5  C 457.64 354.5  455 351.86  455 348.5  C 455 345.14  457.64 342.5  461 342.5  Z " fill-rule="nonzero" fill="#f0f0f0" stroke="none" />
  <path d="M 461 343  C 464.08 343  466.5 345.42  466.5 348.5  C 466.5 351.58  464.08 354  461 354  C 457.92 354  455.5 351.58  455.5 348.5  C 455.5 345.42  457.92 343  461 343  Z " stroke-width="1" stroke="#797979" fill="none" />
  <path d="M 461 351.5  C 459.32 351.5  458 350.18  458 348.5  C 458 346.82  459.32 345.5  461 345.5  C 462.68 345.5  464 346.82  464 348.5  C 464 350.18  462.68 351.5  461 351.5  " fill-rule="nonzero" fill="#797979" stroke="none" />
</svg>