<?xml version="1.0" encoding="utf-8"?>
<svg version="1.1" xmlns:xlink="http://www.w3.org/1999/xlink" width="20px" height="13px" xmlns="http://www.w3.org/2000/svg">
  <g transform="matrix(1 0 0 1 -276 -157 )">
    <path d="M 11.5494791666667 3.326171875  C 11.6276041666667 3.376953125  11.6666666666667 3.44184027777778  11.6666666666667 3.52083333333333  L 11.6666666666667 7.3125  C 11.6666666666667 7.39149305555556  11.6276041666667 7.45638020833333  11.5494791666667 7.50716145833333  C 11.4713541666667 7.55794270833333  11.3715277777778 7.58333333333333  11.25 7.58333333333333  L 7.08333333333333 7.58333333333333  C 6.96180555555556 7.58333333333333  6.86197916666667 7.55794270833333  6.78385416666667 7.50716145833333  C 6.70572916666667 7.45638020833333  6.66666666666667 7.39149305555556  6.66666666666667 7.3125  L 6.66666666666667 6.77083333333333  C 6.66666666666667 6.69184027777778  6.70572916666667 6.626953125  6.78385416666667 6.576171875  C 6.86197916666667 6.525390625  6.96180555555556 6.5  7.08333333333333 6.5  L 10 6.5  L 10 3.52083333333333  C 10 3.44184027777778  10.0390625 3.376953125  10.1171875 3.326171875  C 10.1953125 3.275390625  10.2951388888889 3.25  10.4166666666667 3.25  L 11.25 3.25  C 11.3715277777778 3.25  11.4713541666667 3.275390625  11.5494791666667 3.326171875  Z M 16.1328125 8.810546875  C 16.7664930555556 8.10525173611111  17.0833333333333 7.33506944444444  17.0833333333333 6.5  C 17.0833333333333 5.66493055555556  16.7664930555556 4.89474826388889  16.1328125 4.189453125  C 15.4991319444444 3.48415798611111  14.6397569444444 2.92556423611111  13.5546875 2.513671875  C 12.4696180555556 2.10177951388889  11.2847222222222 1.89583333333333  10 1.89583333333333  C 8.71527777777778 1.89583333333333  7.53038194444445 2.10177951388889  6.4453125 2.513671875  C 5.36024305555556 2.92556423611111  4.50086805555556 3.48415798611111  3.8671875 4.189453125  C 3.23350694444444 4.89474826388889  2.91666666666667 5.66493055555556  2.91666666666667 6.5  C 2.91666666666667 7.33506944444444  3.23350694444444 8.10525173611111  3.8671875 8.810546875  C 4.50086805555556 9.51584201388889  5.36024305555556 10.0744357638889  6.4453125 10.486328125  C 7.53038194444445 10.8982204861111  8.71527777777778 11.1041666666667  10 11.1041666666667  C 11.2847222222222 11.1041666666667  12.4696180555556 10.8982204861111  13.5546875 10.486328125  C 14.6397569444444 10.0744357638889  15.4991319444444 9.51584201388889  16.1328125 8.810546875  Z M 18.6588541666667 3.2373046875  C 19.5529513888889 4.23318142361111  20 5.32074652777778  20 6.5  C 20 7.67925347222222  19.5529513888889 8.76681857638889  18.6588541666667 9.7626953125  C 17.7647569444444 10.7585720486111  16.5516493055556 11.5470920138889  15.01953125 12.1282552083333  C 13.4874131944444 12.7094184027778  11.8142361111111 13  10 13  C 8.18576388888889 13  6.51258680555556 12.7094184027778  4.98046875 12.1282552083333  C 3.44835069444444 11.5470920138889  2.23524305555556 10.7585720486111  1.34114583333333 9.7626953125  C 0.447048611111111 8.76681857638889  0 7.67925347222222  0 6.5  C 0 5.32074652777778  0.447048611111111 4.23318142361111  1.34114583333333 3.2373046875  C 2.23524305555556 2.24142795138889  3.44835069444444 1.45290798611111  4.98046875 0.871744791666666  C 6.51258680555556 0.290581597222221  8.18576388888889 0  10 0  C 11.8142361111111 0  13.4874131944444 0.290581597222221  15.01953125 0.871744791666666  C 16.5516493055556 1.45290798611111  17.7647569444444 2.24142795138889  18.6588541666667 3.2373046875  Z " fill-rule="nonzero" fill="#8c8c8c" stroke="none" transform="matrix(1 0 0 1 276 157 )" />
  </g>
</svg>