<?xml version="1.0" encoding="utf-8"?>
<svg version="1.1" xmlns:xlink="http://www.w3.org/1999/xlink" width="280px" height="159px" xmlns="http://www.w3.org/2000/svg">
  <defs>
    <mask fill="white" id="clip1">
      <path d="M 37 340  L 37 186  C 37 183.225  39.225 181  42 181  L 312 181  C 314.775 181  317 183.225  317 186  L 317 340  " fill-rule="evenodd" />
    </mask>
  </defs>
  <g transform="matrix(1 0 0 1 -37 -181 )">
    <path d="M 37 181  L 317 181  L 317 340  L 37 340  L 37 181  " fill-rule="nonzero" fill="#cccccc" stroke="none" mask="url(#clip1)" />
    <path d="M 48 192  L 306 192  L 306 329  L 48 329  L 48 192  " fill-rule="nonzero" fill="#ffffff" stroke="none" mask="url(#clip1)" />
    <path d="M 194.525 228.7  C 187.847 228.7  182.6 223.453  182.6 216.775  C 182.6 210.097  187.847 204.85  194.525 204.85  C 201.203 204.85  206.45 210.097  206.45 216.775  C 206.45 223.453  201.203 228.7  194.525 228.7  " fill-rule="nonzero" fill="#cccccc" stroke="none" mask="url(#clip1)" />
    <path d="M 52 325  L 52 254.05  L 114.5 221.8  L 202 281.047857142857  L 252 241.15  L 302 281.047857142857  L 302 325  L 52 325  " fill-rule="nonzero" fill="#169bd5" stroke="none" mask="url(#clip1)" />
  </g>
</svg>